# xmcd
#
# Track frame offsets:
#        150
#        16116
#        38859
#        56808
#        70214
#        84690
#        104471
#        119098
#        140293
#        158144
#        174591
#        187344
#        206922
#        224457
#        237586
#        251421
#        268749
#
# Disc length: 3745 seconds
#
# Revision: 0
# Processed by: cddbd v1.5.2PL0 Copyright (c) Steve Scherf et al.
# Submitted via: CDGFix 3.8d
#
DISCID=0a0e9f11
DTITLE=Various Artist - CBEP5097-02
DYEAR=1900
DGENRE=Karaoke
TTITLE0=George Strait - Christmas Cookies
TTITLE1=Kenny Chesney - All I Want For Christmas Is A Real Good Tan
TTITLE2=Reba Mcentire - Angels Sang, The
TTITLE3=Brooks and Dunn - Hangin' Round The Mistletoe
TTITLE4=George Strait - Merry Christmas (Whoever You Are)
TTITLE5=Alabama - Thistlehair The Christmas Bear
TTITLE6=Patty Loveless - Santa Train
TTITLE7=Vince Gill - Let There Be Peace On Earth
TTITLE8=Toby Keith - Santa, I'm Right Here
TTITLE9=Robert Keen - Happy Hollidays Y'all
TTITLE10=Doug Stone - All I Want For Christmas Is You
TTITLE11=Faith Hill - Where Are You Christmas
TTITLE12=Brooks and Dunn - It Won't Be Christmas Without U
TTITLE13=Ricky Van Shelton - Please Come Home For Christmas
TTITLE14=Alan Jackson and Alison Krauss - Angels Cried, The
TTITLE15=Marty Stuart - Even Santa Claus Gets The Blues
TTITLE16=John Anderson - Christmas Time
EXTD=
EXTT0=
EXTT1=
EXTT2=
EXTT3=
EXTT4=
EXTT5=
EXTT6=
EXTT7=
EXTT8=
EXTT9=
EXTT10=
EXTT11=
EXTT12=
EXTT13=
EXTT14=
EXTT15=
EXTT16=
PLAYORDER=
